HIERARCHY
ROOT hip
{
  OFFSET 0.00112043 5.09927 -9.65472
  CHANNELS 6 Xposition Yposition Zposition Zrotation Xrotation Yrotation
  JOINT abdomen
  {
    OFFSET 0 -1.186 -1.5018
    CHANNELS 3 Zrotation Xrotation Yrotation
    JOINT abdomen2
    {
      OFFSET 0 9.964 0.2134
      CHANNELS 3 Zrotation Xrotation Yrotation
      JOINT chest
      {
        OFFSET 0 13.134 -3.2573
        CHANNELS 3 Zrotation Xrotation Yrotation
        JOINT neck
        {
          OFFSET 0 20.686 -1.6905
          CHANNELS 3 Zrotation Xrotation Yrotation
          JOINT head
          {
            OFFSET 0 7.238 -0.1237
            CHANNELS 3 Zrotation Xrotation Yrotation
            End Site
            {
              OFFSET 0 0 0
            }
          }
        }
        JOINT lCollar
        {
          OFFSET 1.7069 20.075 5.0056
          CHANNELS 3 Zrotation Xrotation Yrotation
          JOINT lShldr
          {
            OFFSET 13.6458 -0.047 -4.849
            CHANNELS 3 Zrotation Xrotation Yrotation
            JOINT lForeArm
            {
              OFFSET 28.3255 -0.9759 2.2888
              CHANNELS 3 Zrotation Xrotation Yrotation
              JOINT lHand
              {
                OFFSET 22.1583 -0.53 10.8316
                CHANNELS 3 Zrotation Xrotation Yrotation
                JOINT lThumb1
                {
                  OFFSET 0.786 0.112 2.5817
                  CHANNELS 3 Zrotation Xrotation Yrotation
                  JOINT lThumb2
                  {
                    OFFSET 0.3601 -0.878 4.2331
                    CHANNELS 3 Zrotation Xrotation Yrotation
                    JOINT lThumb2_End
                    {
                      OFFSET 1.8127 -1.216 2.2227
                      CHANNELS 3 Zrotation Xrotation Yrotation
                      End Site
                      {
                        OFFSET 0.0181 -0.0122 0.0222
                      }
                    }
                  }
                }
                JOINT lCarpal1
                {
                  OFFSET 0.9571 1.114 1.7695
                  CHANNELS 3 Zrotation Xrotation Yrotation
                  JOINT lIndex1
                  {
                    OFFSET 4.1246 0.487 4.1451
                    CHANNELS 3 Zrotation Xrotation Yrotation
                    JOINT lIndex2
                    {
                      OFFSET 3.4052 -1.454 2.7682
                      CHANNELS 3 Zrotation Xrotation Yrotation
                      JOINT lIndex2_End
                      {
                        OFFSET 1.4531 -1.795 1.2713
                        CHANNELS 3 Zrotation Xrotation Yrotation
                        End Site
                        {
                          OFFSET 0.0145 -0.0179 0.0127
                        }
                      }
                    }
                  }
                  JOINT lMid1
                  {
                    OFFSET 5.6954 0.21 2.1184
                    CHANNELS 3 Zrotation Xrotation Yrotation
                    JOINT lMid2
                    {
                      OFFSET 3.9766 -1.54 2.3863
                      CHANNELS 3 Zrotation Xrotation Yrotation
                      JOINT lMid2_End
                      {
                        OFFSET 1.4042 -1.926 1.125
                        CHANNELS 3 Zrotation Xrotation Yrotation
                        End Site
                        {
                          OFFSET 0.014 -0.0193 0.0113
                        }
                      }
                    }
                  }
                }
                JOINT lCarpal2
                {
                  OFFSET 2.0956 0.66 -0.3894
                  CHANNELS 3 Zrotation Xrotation Yrotation
                  JOINT lRing1
                  {
                    OFFSET 5.0395 -0.09 2.4971
                    CHANNELS 3 Zrotation Xrotation Yrotation
                    JOINT lRing2
                    {
                      OFFSET 3.7921 -1.552 1.4806
                      CHANNELS 3 Zrotation Xrotation Yrotation
                      JOINT lRing2_End
                      {
                        OFFSET 1.4655 -1.808 0.9609
                        CHANNELS 3 Zrotation Xrotation Yrotation
                        End Site
                        {
                          OFFSET 0.0147 -0.0181 0.0096
                        }
                      }
                    }
                  }
                  JOINT lPinky1
                  {
                    OFFSET 4.9141 -1.269 0.3591
                    CHANNELS 3 Zrotation Xrotation Yrotation
                    JOINT lPinky2
                    {
                      OFFSET 3.1477 -1.685 0.8462
                      CHANNELS 3 Zrotation Xrotation Yrotation
                      JOINT lPinky2_End
                      {
                        OFFSET 0.8055 -1.585 0.7955
                        CHANNELS 3 Zrotation Xrotation Yrotation
                        End Site
                        {
                          OFFSET 0.0081 -0.0158 0.008
                        }
                      }
                    }
                  }
                }
              }
            }
          }
        }
        JOINT rCollar
        {
          OFFSET -1.7069 20.075 5.0056
          CHANNELS 3 Zrotation Xrotation Yrotation
          JOINT rShldr
          {
            OFFSET -13.6458 -0.047 -4.849
            CHANNELS 3 Zrotation Xrotation Yrotation
            JOINT rForeArm
            {
              OFFSET -28.3255 -0.9759 2.2888
              CHANNELS 3 Zrotation Xrotation Yrotation
              JOINT rHand
              {
                OFFSET -22.1583 -0.53 10.8316
                CHANNELS 3 Zrotation Xrotation Yrotation
                JOINT rThumb1
                {
                  OFFSET -0.786 0.112 2.5817
                  CHANNELS 3 Zrotation Xrotation Yrotation
                  JOINT rThumb2
                  {
                    OFFSET -0.3601 -0.878 4.2331
                    CHANNELS 3 Zrotation Xrotation Yrotation
                    JOINT rThumb2_End
                    {
                      OFFSET -1.8127 -1.216 2.2227
                      CHANNELS 3 Zrotation Xrotation Yrotation
                      End Site
                      {
                        OFFSET -0.0181 -0.0122 0.0222
                      }
                    }
                  }
                }
                JOINT rCarpal1
                {
                  OFFSET -0.9571 1.114 1.7695
                  CHANNELS 3 Zrotation Xrotation Yrotation
                  JOINT rIndex1
                  {
                    OFFSET -4.1246 0.487 4.1451
                    CHANNELS 3 Zrotation Xrotation Yrotation
                    JOINT rIndex2
                    {
                      OFFSET -3.4052 -1.454 2.7682
                      CHANNELS 3 Zrotation Xrotation Yrotation
                      JOINT rIndex2_End
                      {
                        OFFSET -1.4531 -1.795 1.2713
                        CHANNELS 3 Zrotation Xrotation Yrotation
                        End Site
                        {
                          OFFSET -0.0145 -0.018 0.0127
                        }
                      }
                    }
                  }
                  JOINT rMid1
                  {
                    OFFSET -5.6954 0.21 2.1184
                    CHANNELS 3 Zrotation Xrotation Yrotation
                    JOINT rMid2
                    {
                      OFFSET -3.9766 -1.54 2.3863
                      CHANNELS 3 Zrotation Xrotation Yrotation
                      JOINT rMid2_End
                      {
                        OFFSET -1.4042 -1.926 1.125
                        CHANNELS 3 Zrotation Xrotation Yrotation
                        End Site
                        {
                          OFFSET -0.014 -0.0193 0.0113
                        }
                      }
                    }
                  }
                }
                JOINT rCarpal2
                {
                  OFFSET -2.0956 0.66 -0.3894
                  CHANNELS 3 Zrotation Xrotation Yrotation
                  JOINT rRing1
                  {
                    OFFSET -5.0395 -0.09 2.4971
                    CHANNELS 3 Zrotation Xrotation Yrotation
                    JOINT rRing2
                    {
                      OFFSET -3.7921 -1.552 1.4806
                      CHANNELS 3 Zrotation Xrotation Yrotation
                      JOINT rRing2_End
                      {
                        OFFSET -1.4655 -1.808 0.9609
                        CHANNELS 3 Zrotation Xrotation Yrotation
                        End Site
                        {
                          OFFSET -0.0147 -0.0181 0.0096
                        }
                      }
                    }
                  }
                  JOINT rPinky1
                  {
                    OFFSET -4.9141 -1.269 0.3592
                    CHANNELS 3 Zrotation Xrotation Yrotation
                    JOINT rPinky2
                    {
                      OFFSET -3.1477 -1.685 0.8462
                      CHANNELS 3 Zrotation Xrotation Yrotation
                      JOINT rPinky2_End
                      {
                        OFFSET -0.8055 -1.585 0.7955
                        CHANNELS 3 Zrotation Xrotation Yrotation
                        End Site
                        {
                          OFFSET -0.0081 -0.0158 0.008
                        }
                      }
                    }
                  }
                }
              }
            }
          }
        }
      }
    }
  }
  JOINT lThigh
  {
    OFFSET 8.367 -8.2066 0.5982
    CHANNELS 3 Zrotation Xrotation Yrotation
    JOINT lShin
    {
      OFFSET 2.1923 -43.463 -0.4932
      CHANNELS 3 Zrotation Xrotation Yrotation
      JOINT lFoot
      {
        OFFSET 0.7333 -45.8593 -2.6451
        CHANNELS 3 Zrotation Xrotation Yrotation
        End Site
        {
          OFFSET 2.6618 -4.2699 12.3931
        }
      }
    }
  }
  JOINT rThigh
  {
    OFFSET -8.367 -8.2066 0.5982
    CHANNELS 3 Zrotation Xrotation Yrotation
    JOINT rShin
    {
      OFFSET -2.1923 -43.463 -0.4931
      CHANNELS 3 Zrotation Xrotation Yrotation
      JOINT rFoot
      {
        OFFSET -0.7333 -45.8593 -2.6451
        CHANNELS 3 Zrotation Xrotation Yrotation
        End Site
        {
          OFFSET -2.6618 -4.2699 12.3931
        }
      }
    }
  }
}
MOTION
Frames:	4
Frame Time:	0.0333333
0 91.7903 2.51682 0 0 -0 0 0 -0 0 0 -0 0 0 -0 0 0 -0 0 0 -0 0 0 -0 1.66051 0.0835086 5.75766 -0.0175111 0.895433 15.7816 7.95139e-016 -1.98785e-016 -0 5.46658e-016 -3.97569e-016 -0 5.96354e-016 0 -0 3.97569e-016 1.98785e-016 9.54166e-015 1.49089e-016 -3.97569e-016 -0 6.4605e-016 0 3.18055e-015 5.96354e-016 0 3.18055e-015 8.94531e-016 -1.98785e-016 6.36111e-015 6.4605e-016 0 3.18055e-015 5.96354e-016 0 3.18055e-015 8.94531e-016 -1.98785e-016 6.36111e-015 1.49089e-016 -3.97569e-016 -0 6.4605e-016 0 3.18055e-015 5.96354e-016 0 3.18055e-015 8.94531e-016 -1.98785e-016 6.36111e-015 6.4605e-016 0 3.18055e-015 5.96354e-016 0 3.18055e-015 8.94531e-016 -1.98785e-016 6.36111e-015 0 0 -0 -1.4496 0.0636048 -5.0245 -1.74811 1.20616 -16.8394 -1.19271e-015 1.98785e-016 -3.18055e-015 -3.97569e-016 1.98785e-016 -3.18055e-015 -2.98177e-016 1.98785e-016 -3.18055e-015 -2.98177e-016 3.97569e-016 -0 4.96962e-016 0 -6.36111e-015 -9.93923e-017 3.97569e-016 -0 -8.94531e-016 5.96354e-016 -0 -3.97569e-016 3.97569e-016 -0 -9.93923e-017 3.97569e-016 -0 -8.94531e-016 5.96354e-016 -0 -3.97569e-016 3.97569e-016 -0 4.96962e-016 0 -6.36111e-015 -9.93923e-017 3.97569e-016 -0 -8.94531e-016 5.96354e-016 -0 -3.97569e-016 3.97569e-016 -0 -9.93923e-017 3.97569e-016 -0 -8.94531e-016 5.96354e-016 -0 -3.97569e-016 3.97569e-016 -0 -4.66111 -0.998717 0.12318 0.00986924 1.54847 0.176523 4.65186 -0.572283 -0.254274 4.66111 -0.998765 -0.123176 -0.00986867 1.54869 -0.176537 -4.65186 -0.572453 0.25427 
0.114881 22.5847 -46.392 0 0 -0 2.3325 8.66107 -1.98516 5.05854 17.2267 -4.40611 5.05854 17.2267 -4.40611 1.30209e-006 -3.00774e-005 4.67736e-006 0.90751 -0.124149 0.000981914 -12.252 1.60634 -20.101 -4.3768 2.23648 -25.8745 17.3798 -1.37081 -53.832 24.4299 -9.16721 2.43763 1.59028e-015 -7.95139e-016 1.59028e-015 1.59028e-015 -7.95139e-016 -1.59028e-015 1.59028e-015 1.19271e-015 -1.59028e-015 3.31043e-032 -1.19271e-015 1.59028e-015 -7.95139e-015 2.38542e-015 4.77083e-015 -0 -7.95139e-016 -0 -1.59028e-015 -3.97569e-016 -0 -7.95139e-015 2.38542e-015 4.77083e-015 -0 -7.95139e-016 -0 -1.59028e-015 -3.97569e-016 -0 3.31043e-032 -1.19271e-015 1.59028e-015 -7.95139e-015 2.38542e-015 4.77083e-015 -0 -7.95139e-016 -0 -1.59028e-015 -3.97569e-016 -0 -7.95139e-015 2.38542e-015 4.77083e-015 -0 -7.95139e-016 -0 -1.59028e-015 -3.97569e-016 -0 18.2731 4.78382 35.576 5.91877 1.36143 29.3725 5.33075 0.899666 39.6529 6.49224 2.60875 0.0254031 9.54166e-015 0 4.77083e-015 9.54166e-015 -1.59028e-015 4.77083e-015 6.36111e-015 -4.77083e-015 6.36111e-015 6.36111e-015 1.59028e-015 -1.59028e-015 9.54166e-015 -4.77083e-015 1.11319e-014 9.54166e-015 -7.95139e-015 1.59028e-015 6.36111e-015 -6.36111e-015 1.11319e-014 9.54166e-015 -4.77083e-015 1.11319e-014 9.54166e-015 -7.95139e-015 1.59028e-015 6.36111e-015 -6.36111e-015 1.11319e-014 6.36111e-015 1.59028e-015 -1.59028e-015 9.54166e-015 -4.77083e-015 1.11319e-014 9.54166e-015 -7.95139e-015 1.59028e-015 6.36111e-015 -6.36111e-015 1.11319e-014 9.54166e-015 -4.77083e-015 1.11319e-014 9.54166e-015 -7.95139e-015 1.59028e-015 6.36111e-015 -6.36111e-015 1.11319e-014 3.83554 -61.4745 19.1923 171.883 36.1864 -164.977 4.06918 69.5274 10.9344 -1.89417 -61.5538 -17.7144 -172.051 36.2453 164.96 -1.62369 70.1016 -13.0265 
0.114881 22.5847 -46.392 0 0 -0 2.33338 8.63054 -1.98667 5.05876 17.1656 -4.40741 5.05876 17.1656 -4.40741 -1.75125e-006 0.000130472 7.45276e-006 1.80732 -0.24077 0.0361274 -12.252 1.60633 -20.101 -4.3768 2.23648 -25.8745 17.3798 -1.37081 -53.832 24.4299 -9.1672 2.43764 6.6432e-007 6.33508e-007 2.33326e-006 6.05448e-007 2.18e-008 -1.22057e-006 -1.66213e-007 1.30519e-007 2.95216e-008 3.18055e-015 3.97569e-016 -1.59028e-015 6.6432e-007 6.33508e-007 2.33326e-006 6.05448e-007 2.18e-008 -1.22057e-006 -1.66213e-007 1.30519e-007 2.95216e-008 6.6432e-007 6.33508e-007 2.33326e-006 6.05448e-007 2.18e-008 -1.22057e-006 -1.66213e-007 1.30519e-007 2.95216e-008 3.18055e-015 3.97569e-016 -1.59028e-015 6.6432e-007 6.33508e-007 2.33326e-006 6.05448e-007 2.18e-008 -1.22057e-006 -1.66213e-007 1.30519e-007 2.95216e-008 6.6432e-007 6.33508e-007 2.33326e-006 6.05448e-007 2.18e-008 -1.22057e-006 -1.66213e-007 1.30519e-007 2.95216e-008 18.2731 4.7838 35.576 5.90024 1.35335 29.2723 5.33076 0.899671 39.653 5.5277 2.31596 0.716282 8.82781e-032 1.59028e-015 -3.18055e-015 -5.09145e-007 -4.88071e-007 4.76093e-007 3.53113e-031 6.36111e-015 -3.18055e-015 3.53113e-031 3.18055e-015 -6.36111e-015 3.18055e-015 0 6.36111e-015 -5.09145e-007 -4.88071e-007 4.76093e-007 6.36111e-015 -4.77083e-015 9.54166e-015 3.18055e-015 0 6.36111e-015 -5.09145e-007 -4.88071e-007 4.76093e-007 6.36111e-015 -4.77083e-015 9.54166e-015 3.53113e-031 3.18055e-015 -6.36111e-015 3.18055e-015 0 6.36111e-015 -5.09145e-007 -4.88071e-007 4.76093e-007 6.36111e-015 -4.77083e-015 9.54166e-015 3.18055e-015 0 6.36111e-015 -5.09145e-007 -4.88071e-007 4.76093e-007 6.36111e-015 -4.77083e-015 9.54166e-015 3.83552 -61.4745 19.1923 171.883 36.1864 -164.977 4.06917 69.5274 10.9344 -1.89417 -61.5538 -17.7144 -172.051 36.2453 164.96 -1.62369 70.1016 -13.0265 
0.114881 22.5847 -46.392 0 0 -0 2.33426 8.60002 -1.98819 5.05898 17.1045 -4.4087 5.05898 17.1045 -4.4087 -1.79569e-005 -8.91567e-005 8.21045e-006 2.70894 -0.35707 0.0731729 -12.252 1.60634 -20.101 -4.37682 2.23646 -25.8745 17.3798 -1.37081 -53.832 24.4299 -9.16721 2.43763 1.66278e-007 -1.30489e-007 -2.93173e-008 -3.32555e-007 2.60978e-007 5.86346e-008 1.66278e-007 -1.30489e-007 -2.93173e-008 3.18055e-015 -1.98785e-015 -1.59028e-015 1.66278e-007 -1.30489e-007 -2.93173e-008 -3.32555e-007 2.60978e-007 5.86346e-008 1.66278e-007 -1.30489e-007 -2.93173e-008 1.66278e-007 -1.30489e-007 -2.93173e-008 -3.32555e-007 2.60978e-007 5.86346e-008 1.66278e-007 -1.30489e-007 -2.93173e-008 3.18055e-015 -1.98785e-015 -1.59028e-015 1.66278e-007 -1.30489e-007 -2.93173e-008 -3.32555e-007 2.60978e-007 5.86346e-008 1.66278e-007 -1.30489e-007 -2.93173e-008 1.66278e-007 -1.30489e-007 -2.93173e-008 -3.32555e-007 2.60978e-007 5.86346e-008 1.66278e-007 -1.30489e-007 -2.93173e-008 18.2731 4.7838 35.576 5.88167 1.34527 29.1721 5.33077 0.899677 39.653 4.56484 2.01094 1.40353 3.18055e-015 -3.18055e-015 3.18055e-015 -5.11367e-007 -4.90098e-007 4.72791e-007 3.18055e-015 -9.54166e-015 -0 0 0 -0 3.18055e-015 -3.18055e-015 4.77083e-015 -5.11367e-007 -4.90098e-007 4.72791e-007 3.18055e-015 0 -6.36111e-015 3.18055e-015 -3.18055e-015 4.77083e-015 -5.11367e-007 -4.90098e-007 4.72791e-007 3.18055e-015 0 -6.36111e-015 0 0 -0 3.18055e-015 -3.18055e-015 4.77083e-015 -5.11367e-007 -4.90098e-007 4.72791e-007 3.18055e-015 0 -6.36111e-015 3.18055e-015 -3.18055e-015 4.77083e-015 -5.11367e-007 -4.90098e-007 4.72791e-007 3.18055e-015 0 -6.36111e-015 3.83552 -61.4745 19.1923 171.883 36.1864 -164.977 4.06917 69.5274 10.9344 -1.89417 -61.5538 -17.7144 -172.051 36.2453 164.96 -1.62369 70.1016 -13.0265 
